<mxfile host="app.diagrams.net" modified="2024-06-19T08:56:08.257Z" agent="Mozilla/5.0 (Windows NT 10.0; Win64; x64) AppleWebKit/537.36 (KHTML, like Gecko) Chrome/126.0.0.0 Safari/537.36" etag="HVCRMZo-vcFTWg_4xwXB" version="24.5.5" type="github">
  <diagram name="第 1 页" id="CDN1awkTx7iHZSeHB25q">
    <mxGraphModel dx="1877" dy="1726" grid="1" gridSize="10" guides="1" tooltips="1" connect="1" arrows="1" fold="1" page="1" pageScale="1" pageWidth="827" pageHeight="1169" math="0" shadow="0">
      <root>
        <mxCell id="0" />
        <mxCell id="1" parent="0" />
        <mxCell id="YpanblVg95gVwMK05n6i-1" value="" style="rounded=1;whiteSpace=wrap;html=1;dashed=1;strokeColor=#FFB570;strokeWidth=2;" vertex="1" parent="1">
          <mxGeometry x="620" y="229.75" width="180" height="195" as="geometry" />
        </mxCell>
        <mxCell id="YpanblVg95gVwMK05n6i-7" value="" style="endArrow=classic;startArrow=classic;html=1;rounded=0;entryX=0;entryY=0.75;entryDx=0;entryDy=0;" edge="1" parent="1" source="YpanblVg95gVwMK05n6i-4" target="YpanblVg95gVwMK05n6i-18">
          <mxGeometry width="50" height="50" relative="1" as="geometry">
            <mxPoint x="130" y="290" as="sourcePoint" />
            <mxPoint x="180" y="240" as="targetPoint" />
            <Array as="points">
              <mxPoint x="70" y="160" />
            </Array>
          </mxGeometry>
        </mxCell>
        <mxCell id="YpanblVg95gVwMK05n6i-8" value="" style="endArrow=classic;html=1;rounded=0;" edge="1" parent="1">
          <mxGeometry width="50" height="50" relative="1" as="geometry">
            <mxPoint x="-250" y="289.25" as="sourcePoint" />
            <mxPoint x="-140" y="289.25" as="targetPoint" />
          </mxGeometry>
        </mxCell>
        <mxCell id="YpanblVg95gVwMK05n6i-9" value="API调用" style="text;html=1;align=center;verticalAlign=middle;resizable=0;points=[];autosize=1;strokeColor=none;fillColor=none;strokeWidth=3;fontSize=15;fontStyle=1" vertex="1" parent="1">
          <mxGeometry x="-240" y="254.75" width="80" height="30" as="geometry" />
        </mxCell>
        <mxCell id="YpanblVg95gVwMK05n6i-10" value="网关集群" style="text;html=1;align=center;verticalAlign=middle;resizable=0;points=[];autosize=1;strokeColor=none;fillColor=none;strokeWidth=3;fontSize=15;fontStyle=1" vertex="1" parent="1">
          <mxGeometry x="-60" y="190" width="80" height="30" as="geometry" />
        </mxCell>
        <mxCell id="YpanblVg95gVwMK05n6i-11" value="nacos集群" style="text;html=1;align=center;verticalAlign=middle;resizable=0;points=[];autosize=1;strokeColor=none;fillColor=none;strokeWidth=3;fontSize=15;fontStyle=1" vertex="1" parent="1">
          <mxGeometry x="135" y="-10" width="100" height="30" as="geometry" />
        </mxCell>
        <mxCell id="YpanblVg95gVwMK05n6i-12" style="edgeStyle=orthogonalEdgeStyle;rounded=0;orthogonalLoop=1;jettySize=auto;html=1;entryX=0;entryY=0.5;entryDx=0;entryDy=0;" edge="1" parent="1" source="YpanblVg95gVwMK05n6i-13" target="YpanblVg95gVwMK05n6i-1">
          <mxGeometry relative="1" as="geometry" />
        </mxCell>
        <mxCell id="YpanblVg95gVwMK05n6i-13" value="" style="rounded=1;whiteSpace=wrap;html=1;dashed=1;strokeColor=#FFB570;strokeWidth=2;" vertex="1" parent="1">
          <mxGeometry x="230" y="230" width="290" height="195" as="geometry" />
        </mxCell>
        <mxCell id="YpanblVg95gVwMK05n6i-14" value="&lt;font color=&quot;#ffffff&quot;&gt;ServerA&lt;/font&gt;" style="rounded=0;whiteSpace=wrap;html=1;fillColor=#176934;fontSize=17;strokeColor=none;" vertex="1" parent="1">
          <mxGeometry x="260" y="254.75" width="100" height="40" as="geometry" />
        </mxCell>
        <mxCell id="YpanblVg95gVwMK05n6i-15" value="&lt;font color=&quot;#ffffff&quot;&gt;ServerA&lt;/font&gt;" style="rounded=0;whiteSpace=wrap;html=1;fillColor=#176934;fontSize=17;strokeColor=none;" vertex="1" parent="1">
          <mxGeometry x="260" y="304.75" width="100" height="40" as="geometry" />
        </mxCell>
        <mxCell id="YpanblVg95gVwMK05n6i-16" value="&lt;font color=&quot;#ffffff&quot;&gt;ServerA&lt;/font&gt;" style="rounded=0;whiteSpace=wrap;html=1;fillColor=#176934;fontSize=17;strokeColor=none;" vertex="1" parent="1">
          <mxGeometry x="260" y="357.25" width="100" height="40" as="geometry" />
        </mxCell>
        <mxCell id="YpanblVg95gVwMK05n6i-17" value="" style="group" vertex="1" connectable="0" parent="1">
          <mxGeometry x="210" y="30" width="320" height="175" as="geometry" />
        </mxCell>
        <mxCell id="YpanblVg95gVwMK05n6i-18" value="" style="rounded=1;whiteSpace=wrap;html=1;dashed=1;strokeColor=#FFB570;strokeWidth=2;" vertex="1" parent="YpanblVg95gVwMK05n6i-17">
          <mxGeometry width="320" height="175" as="geometry" />
        </mxCell>
        <mxCell id="YpanblVg95gVwMK05n6i-19" value="&lt;font color=&quot;#ffffff&quot; style=&quot;font-size: 17px;&quot;&gt;Nacos&lt;/font&gt;" style="rounded=0;whiteSpace=wrap;html=1;fillColor=#0080ff;fontSize=17;strokeColor=none;" vertex="1" parent="YpanblVg95gVwMK05n6i-17">
          <mxGeometry x="110" y="20" width="100" height="40" as="geometry" />
        </mxCell>
        <mxCell id="YpanblVg95gVwMK05n6i-20" value="&lt;font color=&quot;#ffffff&quot; style=&quot;font-size: 17px;&quot;&gt;Nacos&lt;/font&gt;" style="rounded=0;whiteSpace=wrap;html=1;fillColor=#0080ff;fontSize=17;strokeColor=none;" vertex="1" parent="YpanblVg95gVwMK05n6i-17">
          <mxGeometry x="200" y="100" width="100" height="40" as="geometry" />
        </mxCell>
        <mxCell id="YpanblVg95gVwMK05n6i-21" value="&lt;font color=&quot;#ffffff&quot; style=&quot;font-size: 17px;&quot;&gt;Nacos&lt;/font&gt;" style="rounded=0;whiteSpace=wrap;html=1;fillColor=#0080ff;fontSize=17;strokeColor=none;" vertex="1" parent="YpanblVg95gVwMK05n6i-17">
          <mxGeometry x="20" y="100" width="100" height="40" as="geometry" />
        </mxCell>
        <mxCell id="YpanblVg95gVwMK05n6i-22" value="" style="endArrow=classic;startArrow=classic;html=1;rounded=0;" edge="1" parent="YpanblVg95gVwMK05n6i-17">
          <mxGeometry width="50" height="50" relative="1" as="geometry">
            <mxPoint x="70" y="90" as="sourcePoint" />
            <mxPoint x="100" y="40" as="targetPoint" />
          </mxGeometry>
        </mxCell>
        <mxCell id="YpanblVg95gVwMK05n6i-23" value="" style="endArrow=classic;startArrow=classic;html=1;rounded=0;" edge="1" parent="YpanblVg95gVwMK05n6i-17">
          <mxGeometry width="50" height="50" relative="1" as="geometry">
            <mxPoint x="250" y="90" as="sourcePoint" />
            <mxPoint x="220" y="40" as="targetPoint" />
          </mxGeometry>
        </mxCell>
        <mxCell id="YpanblVg95gVwMK05n6i-24" value="" style="endArrow=classic;startArrow=classic;html=1;rounded=0;" edge="1" parent="YpanblVg95gVwMK05n6i-17">
          <mxGeometry width="50" height="50" relative="1" as="geometry">
            <mxPoint x="200" y="120" as="sourcePoint" />
            <mxPoint x="120" y="120" as="targetPoint" />
          </mxGeometry>
        </mxCell>
        <mxCell id="YpanblVg95gVwMK05n6i-25" value="" style="endArrow=classic;html=1;rounded=0;entryX=0;entryY=0.5;entryDx=0;entryDy=0;" edge="1" parent="1" target="YpanblVg95gVwMK05n6i-13">
          <mxGeometry width="50" height="50" relative="1" as="geometry">
            <mxPoint x="140" y="325.75" as="sourcePoint" />
            <mxPoint x="250" y="325.75" as="targetPoint" />
          </mxGeometry>
        </mxCell>
        <mxCell id="YpanblVg95gVwMK05n6i-26" value="&lt;font color=&quot;#ffffff&quot;&gt;Auth Center&lt;/font&gt;" style="rounded=0;whiteSpace=wrap;html=1;fillColor=#d5b930;fontSize=17;strokeColor=none;" vertex="1" parent="1">
          <mxGeometry x="-97" y="470" width="100" height="40" as="geometry" />
        </mxCell>
        <mxCell id="YpanblVg95gVwMK05n6i-27" value="" style="endArrow=classic;html=1;rounded=0;entryX=0.5;entryY=0;entryDx=0;entryDy=0;exitX=0.25;exitY=1;exitDx=0;exitDy=0;" edge="1" parent="1" source="YpanblVg95gVwMK05n6i-3" target="YpanblVg95gVwMK05n6i-26">
          <mxGeometry width="50" height="50" relative="1" as="geometry">
            <mxPoint x="-130" y="338" as="sourcePoint" />
            <mxPoint x="-20" y="338" as="targetPoint" />
          </mxGeometry>
        </mxCell>
        <mxCell id="YpanblVg95gVwMK05n6i-28" value="认证中心" style="text;html=1;align=center;verticalAlign=middle;resizable=0;points=[];autosize=1;strokeColor=none;fillColor=none;strokeWidth=3;fontSize=15;fontStyle=1" vertex="1" parent="1">
          <mxGeometry x="-87" y="530" width="80" height="30" as="geometry" />
        </mxCell>
        <mxCell id="YpanblVg95gVwMK05n6i-29" value="&lt;font color=&quot;#ffffff&quot;&gt;ELK&lt;/font&gt;" style="rounded=0;whiteSpace=wrap;html=1;fillColor=#d5b930;fontSize=17;strokeColor=none;" vertex="1" parent="1">
          <mxGeometry x="270" y="480" width="100" height="40" as="geometry" />
        </mxCell>
        <mxCell id="YpanblVg95gVwMK05n6i-30" value="" style="endArrow=classic;html=1;rounded=0;exitX=0.279;exitY=0.995;exitDx=0;exitDy=0;exitPerimeter=0;entryX=0.409;entryY=0;entryDx=0;entryDy=0;entryPerimeter=0;" edge="1" parent="1" source="YpanblVg95gVwMK05n6i-13" target="YpanblVg95gVwMK05n6i-29">
          <mxGeometry width="50" height="50" relative="1" as="geometry">
            <mxPoint x="80" y="435" as="sourcePoint" />
            <mxPoint x="320" y="480" as="targetPoint" />
          </mxGeometry>
        </mxCell>
        <mxCell id="YpanblVg95gVwMK05n6i-31" value="日志服务" style="text;html=1;align=center;verticalAlign=middle;resizable=0;points=[];autosize=1;strokeColor=none;fillColor=none;strokeWidth=3;fontSize=15;fontStyle=1" vertex="1" parent="1">
          <mxGeometry x="280" y="520" width="80" height="30" as="geometry" />
        </mxCell>
        <mxCell id="YpanblVg95gVwMK05n6i-32" value="&lt;font color=&quot;#ffffff&quot;&gt;Sky&amp;nbsp;walking&lt;/font&gt;" style="rounded=0;whiteSpace=wrap;html=1;fillColor=#d5b930;fontSize=17;strokeColor=none;" vertex="1" parent="1">
          <mxGeometry x="403" y="480" width="100" height="40" as="geometry" />
        </mxCell>
        <mxCell id="YpanblVg95gVwMK05n6i-33" value="" style="endArrow=classic;html=1;rounded=0;exitX=0.279;exitY=0.995;exitDx=0;exitDy=0;exitPerimeter=0;entryX=0.409;entryY=0;entryDx=0;entryDy=0;entryPerimeter=0;" edge="1" parent="1">
          <mxGeometry width="50" height="50" relative="1" as="geometry">
            <mxPoint x="450" y="425" as="sourcePoint" />
            <mxPoint x="450" y="481" as="targetPoint" />
          </mxGeometry>
        </mxCell>
        <mxCell id="YpanblVg95gVwMK05n6i-34" value="服务监控" style="text;html=1;align=center;verticalAlign=middle;resizable=0;points=[];autosize=1;strokeColor=none;fillColor=none;strokeWidth=3;fontSize=15;fontStyle=1" vertex="1" parent="1">
          <mxGeometry x="413" y="520" width="80" height="30" as="geometry" />
        </mxCell>
        <mxCell id="YpanblVg95gVwMK05n6i-35" value="&lt;font color=&quot;#ffffff&quot;&gt;Mysql&lt;/font&gt;" style="rounded=0;whiteSpace=wrap;html=1;fillColor=#FF3333;fontSize=17;strokeColor=none;" vertex="1" parent="1">
          <mxGeometry x="660" y="282.5" width="100" height="40" as="geometry" />
        </mxCell>
        <mxCell id="YpanblVg95gVwMK05n6i-36" value="&lt;font color=&quot;#ffffff&quot;&gt;Redis&lt;/font&gt;" style="rounded=0;whiteSpace=wrap;html=1;fillColor=#FF3333;fontSize=17;strokeColor=none;" vertex="1" parent="1">
          <mxGeometry x="660" y="332.5" width="100" height="40" as="geometry" />
        </mxCell>
        <mxCell id="YpanblVg95gVwMK05n6i-37" value="&lt;font color=&quot;#ffffff&quot;&gt;ServerB&lt;/font&gt;" style="rounded=0;whiteSpace=wrap;html=1;fillColor=#176934;fontSize=17;strokeColor=none;" vertex="1" parent="1">
          <mxGeometry x="393" y="256.25" width="100" height="40" as="geometry" />
        </mxCell>
        <mxCell id="YpanblVg95gVwMK05n6i-38" value="&lt;font color=&quot;#ffffff&quot;&gt;ServerB&lt;/font&gt;" style="rounded=0;whiteSpace=wrap;html=1;fillColor=#176934;fontSize=17;strokeColor=none;" vertex="1" parent="1">
          <mxGeometry x="393" y="306.25" width="100" height="40" as="geometry" />
        </mxCell>
        <mxCell id="YpanblVg95gVwMK05n6i-39" value="&lt;font color=&quot;#ffffff&quot;&gt;ServerB&lt;/font&gt;" style="rounded=0;whiteSpace=wrap;html=1;fillColor=#176934;fontSize=17;strokeColor=none;" vertex="1" parent="1">
          <mxGeometry x="393" y="358.75" width="100" height="40" as="geometry" />
        </mxCell>
        <mxCell id="YpanblVg95gVwMK05n6i-3" value="" style="rounded=1;whiteSpace=wrap;html=1;dashed=1;strokeColor=#FFB570;strokeWidth=2;container=0;" vertex="1" parent="1">
          <mxGeometry x="-110" y="230" width="250" height="195" as="geometry" />
        </mxCell>
        <mxCell id="YpanblVg95gVwMK05n6i-4" value="&lt;font color=&quot;#ffffff&quot;&gt;gateway&lt;/font&gt;" style="rounded=0;whiteSpace=wrap;html=1;fillColor=#a07427;fontSize=17;strokeColor=none;container=0;" vertex="1" parent="1">
          <mxGeometry x="20" y="257.5" width="100" height="40" as="geometry" />
        </mxCell>
        <mxCell id="YpanblVg95gVwMK05n6i-5" value="&lt;font color=&quot;#ffffff&quot;&gt;gateway&lt;/font&gt;" style="rounded=0;whiteSpace=wrap;html=1;fillColor=#a07427;fontSize=17;strokeColor=none;container=0;" vertex="1" parent="1">
          <mxGeometry x="20" y="307.5" width="100" height="40" as="geometry" />
        </mxCell>
        <mxCell id="YpanblVg95gVwMK05n6i-6" value="&lt;font color=&quot;#ffffff&quot;&gt;gateway&lt;/font&gt;" style="rounded=0;whiteSpace=wrap;html=1;fillColor=#a07427;fontSize=17;strokeColor=none;container=0;" vertex="1" parent="1">
          <mxGeometry x="20" y="357.5" width="100" height="40" as="geometry" />
        </mxCell>
        <mxCell id="YpanblVg95gVwMK05n6i-40" value="&lt;font color=&quot;#ffffff&quot;&gt;nginx&lt;/font&gt;" style="rounded=0;whiteSpace=wrap;html=1;fillColor=#a07427;fontSize=17;strokeColor=none;container=0;" vertex="1" parent="1">
          <mxGeometry x="-100" y="257.5" width="100" height="40" as="geometry" />
        </mxCell>
        <mxCell id="YpanblVg95gVwMK05n6i-41" value="&lt;span style=&quot;color: rgb(255, 255, 255);&quot;&gt;nginx&lt;/span&gt;" style="rounded=0;whiteSpace=wrap;html=1;fillColor=#a07427;fontSize=17;strokeColor=none;container=0;" vertex="1" parent="1">
          <mxGeometry x="-100" y="307.5" width="100" height="40" as="geometry" />
        </mxCell>
        <mxCell id="YpanblVg95gVwMK05n6i-42" value="&lt;span style=&quot;color: rgb(255, 255, 255);&quot;&gt;nginx&lt;/span&gt;" style="rounded=0;whiteSpace=wrap;html=1;fillColor=#a07427;fontSize=17;strokeColor=none;container=0;" vertex="1" parent="1">
          <mxGeometry x="-100" y="357.5" width="100" height="40" as="geometry" />
        </mxCell>
        <mxCell id="YpanblVg95gVwMK05n6i-43" value="&lt;font color=&quot;#ffffff&quot;&gt;Web&lt;/font&gt;" style="rounded=0;whiteSpace=wrap;html=1;fillColor=#a07427;fontSize=17;strokeColor=none;container=0;" vertex="1" parent="1">
          <mxGeometry x="-370" y="257.5" width="100" height="40" as="geometry" />
        </mxCell>
        <mxCell id="YpanblVg95gVwMK05n6i-44" value="&lt;font color=&quot;#ffffff&quot;&gt;编辑器&lt;/font&gt;" style="rounded=0;whiteSpace=wrap;html=1;fillColor=#a07427;fontSize=17;strokeColor=none;container=0;" vertex="1" parent="1">
          <mxGeometry x="-370" y="340" width="100" height="40" as="geometry" />
        </mxCell>
        <mxCell id="YpanblVg95gVwMK05n6i-45" value="" style="endArrow=classic;html=1;rounded=0;" edge="1" parent="1">
          <mxGeometry width="50" height="50" relative="1" as="geometry">
            <mxPoint x="-255" y="367" as="sourcePoint" />
            <mxPoint x="-145" y="367" as="targetPoint" />
          </mxGeometry>
        </mxCell>
        <mxCell id="YpanblVg95gVwMK05n6i-46" value="API调用" style="text;html=1;align=center;verticalAlign=middle;resizable=0;points=[];autosize=1;strokeColor=none;fillColor=none;strokeWidth=3;fontSize=15;fontStyle=1" vertex="1" parent="1">
          <mxGeometry x="-245" y="332.5" width="80" height="30" as="geometry" />
        </mxCell>
      </root>
    </mxGraphModel>
  </diagram>
</mxfile>
